<svg width="121" height="78" viewBox="0 0 121 78" fill="none" xmlns="http://www.w3.org/2000/svg">
<path d="M7.28106 10.059H4.70506V14H3.57806V4.2H7.28106C8.37773 4.2 9.2294 4.459 9.83606 4.977C10.4427 5.495 10.7461 6.21367 10.7461 7.133C10.7461 8.05233 10.4427 8.771 9.83606 9.289C9.2294 9.80233 8.37773 10.059 7.28106 10.059ZM7.24606 5.264H4.70506V9.002H7.24606C8.00673 9.002 8.5854 8.84567 8.98206 8.533C9.37873 8.22033 9.57706 7.75367 9.57706 7.133C9.57706 6.51233 9.37873 6.04567 8.98206 5.733C8.5854 5.42033 8.00673 5.264 7.24606 5.264ZM18.7255 7.371V14H17.6825V13.013C17.1038 13.7597 16.2965 14.133 15.2605 14.133C14.3225 14.133 13.5362 13.8063 12.9015 13.153C12.2668 12.495 11.9495 11.6713 11.9495 10.682C11.9495 9.69267 12.2668 8.87133 12.9015 8.218C13.5362 7.56467 14.3225 7.238 15.2605 7.238C16.2918 7.238 17.0992 7.61133 17.6825 8.358V7.371H18.7255ZM15.3865 8.218C14.6865 8.218 14.1148 8.456 13.6715 8.932C13.2328 9.40333 13.0135 9.98667 13.0135 10.682C13.0135 11.3773 13.2352 11.963 13.6785 12.439C14.1218 12.915 14.6912 13.153 15.3865 13.153C16.0725 13.153 16.6372 12.9197 17.0805 12.453C17.5238 11.9817 17.7455 11.3913 17.7455 10.682C17.7455 9.97733 17.5238 9.39167 17.0805 8.925C16.6372 8.45367 16.0725 8.218 15.3865 8.218ZM26.0832 7.966L25.6282 8.778C25.3855 8.61 25.0658 8.46533 24.6692 8.344C24.2772 8.218 23.8735 8.155 23.4582 8.155C22.9822 8.155 22.6018 8.24833 22.3172 8.435C22.0325 8.62167 21.8902 8.876 21.8902 9.198C21.8902 9.71133 22.3405 10.0217 23.2412 10.129L24.0252 10.227C25.5092 10.4183 26.2512 11.0343 26.2512 12.075C26.2512 12.705 25.9875 13.2043 25.4602 13.573C24.9328 13.9417 24.2235 14.126 23.3322 14.126C22.2355 14.126 21.3138 13.8437 20.5672 13.279L21.0502 12.495C21.6662 12.9757 22.4315 13.216 23.3462 13.216C23.9155 13.216 24.3612 13.125 24.6832 12.943C25.0098 12.7563 25.1732 12.4903 25.1732 12.145C25.1732 11.613 24.7112 11.291 23.7872 11.179L22.9962 11.088C22.2635 10.9993 21.7152 10.7987 21.3512 10.486C20.9872 10.1687 20.8052 9.758 20.8052 9.254C20.8052 8.63333 21.0455 8.14333 21.5262 7.784C22.0068 7.42467 22.6485 7.245 23.4512 7.245C23.9598 7.245 24.4428 7.31033 24.9002 7.441C25.3575 7.57167 25.7518 7.74667 26.0832 7.966ZM32.9875 7.966L32.5325 8.778C32.2898 8.61 31.9701 8.46533 31.5735 8.344C31.1815 8.218 30.7778 8.155 30.3625 8.155C29.8865 8.155 29.5061 8.24833 29.2215 8.435C28.9368 8.62167 28.7945 8.876 28.7945 9.198C28.7945 9.71133 29.2448 10.0217 30.1455 10.129L30.9295 10.227C32.4135 10.4183 33.1555 11.0343 33.1555 12.075C33.1555 12.705 32.8918 13.2043 32.3645 13.573C31.8371 13.9417 31.1278 14.126 30.2365 14.126C29.1398 14.126 28.2181 13.8437 27.4715 13.279L27.9545 12.495C28.5705 12.9757 29.3358 13.216 30.2505 13.216C30.8198 13.216 31.2655 13.125 31.5875 12.943C31.9141 12.7563 32.0775 12.4903 32.0775 12.145C32.0775 11.613 31.6155 11.291 30.6915 11.179L29.9005 11.088C29.1678 10.9993 28.6195 10.7987 28.2555 10.486C27.8915 10.1687 27.7095 9.758 27.7095 9.254C27.7095 8.63333 27.9498 8.14333 28.4305 7.784C28.9111 7.42467 29.5528 7.245 30.3555 7.245C30.8641 7.245 31.3471 7.31033 31.8045 7.441C32.2618 7.57167 32.6561 7.74667 32.9875 7.966ZM37.9668 7.238C38.9654 7.238 39.7961 7.567 40.4588 8.225C41.1261 8.883 41.4598 9.702 41.4598 10.682C41.4598 11.6667 41.1261 12.488 40.4588 13.146C39.7961 13.804 38.9654 14.133 37.9668 14.133C36.9681 14.133 36.1374 13.804 35.4748 13.146C34.8121 12.488 34.4808 11.6667 34.4808 10.682C34.4808 9.702 34.8121 8.883 35.4748 8.225C36.1421 7.567 36.9728 7.238 37.9668 7.238ZM39.6958 8.918C39.2338 8.45133 38.6574 8.218 37.9668 8.218C37.2761 8.218 36.6998 8.45133 36.2378 8.918C35.7758 9.38467 35.5448 9.97267 35.5448 10.682C35.5448 11.396 35.7758 11.9863 36.2378 12.453C36.6998 12.9197 37.2761 13.153 37.9668 13.153C38.6574 13.153 39.2338 12.9197 39.6958 12.453C40.1578 11.9863 40.3888 11.396 40.3888 10.682C40.3888 9.97267 40.1578 9.38467 39.6958 8.918ZM53.8451 8.533V9.597H48.4551V14H47.3281V4.2H54.1111V5.264H48.4551V8.533H53.8451ZM61.9141 7.371V11.235C61.9141 11.711 61.8324 12.138 61.6691 12.516C61.5058 12.8893 61.2841 13.1927 61.0041 13.426C60.7241 13.6593 60.4044 13.8367 60.0451 13.958C59.6904 14.0747 59.3101 14.133 58.9041 14.133C58.4934 14.133 58.1084 14.0747 57.7491 13.958C57.3944 13.8367 57.0771 13.6593 56.7971 13.426C56.5171 13.1927 56.2954 12.8893 56.1321 12.516C55.9734 12.138 55.8941 11.711 55.8941 11.235V7.371H56.9371V11.137C56.9371 11.7997 57.1168 12.3013 57.4761 12.642C57.8354 12.9827 58.3114 13.153 58.9041 13.153C59.4968 13.153 59.9704 12.9827 60.3251 12.642C60.6844 12.3013 60.8641 11.7997 60.8641 11.137V7.371H61.9141ZM67.5526 7.238C68.3739 7.238 69.0389 7.48067 69.5476 7.966C70.0609 8.45133 70.3176 9.093 70.3176 9.891V14H69.2746V10.234C69.2746 9.604 69.1066 9.114 68.7706 8.764C68.4393 8.40933 67.9703 8.232 67.3636 8.232C66.7896 8.232 66.3066 8.41867 65.9146 8.792C65.5273 9.16067 65.3336 9.65067 65.3336 10.262V14H64.2836V7.371H65.3196V8.316C65.5716 7.94267 65.8959 7.66967 66.2926 7.497C66.6893 7.32433 67.1093 7.238 67.5526 7.238ZM75.4988 7.238C76.5301 7.238 77.3375 7.61133 77.9208 8.358V3.92H78.9638V14H77.9208V13.013C77.3421 13.7597 76.5348 14.133 75.4988 14.133C74.5608 14.133 73.7745 13.8063 73.1398 13.153C72.5051 12.495 72.1878 11.6713 72.1878 10.682C72.1878 9.69267 72.5051 8.87133 73.1398 8.218C73.7745 7.56467 74.5608 7.238 75.4988 7.238ZM75.6248 8.218C74.9248 8.218 74.3531 8.456 73.9098 8.932C73.4711 9.40333 73.2518 9.98667 73.2518 10.682C73.2518 11.3773 73.4735 11.963 73.9168 12.439C74.3601 12.915 74.9295 13.153 75.6248 13.153C76.3108 13.153 76.8755 12.9197 77.3188 12.453C77.7621 11.9817 77.9838 11.3913 77.9838 10.682C77.9838 9.97733 77.7621 9.39167 77.3188 8.925C76.8755 8.45367 76.3108 8.218 75.6248 8.218ZM84.3965 7.238C85.3951 7.238 86.2258 7.567 86.8885 8.225C87.5558 8.883 87.8895 9.702 87.8895 10.682C87.8895 11.6667 87.5558 12.488 86.8885 13.146C86.2258 13.804 85.3951 14.133 84.3965 14.133C83.3978 14.133 82.5671 13.804 81.9045 13.146C81.2418 12.488 80.9105 11.6667 80.9105 10.682C80.9105 9.702 81.2418 8.883 81.9045 8.225C82.5718 7.567 83.4025 7.238 84.3965 7.238ZM86.1255 8.918C85.6635 8.45133 85.0871 8.218 84.3965 8.218C83.7058 8.218 83.1295 8.45133 82.6675 8.918C82.2055 9.38467 81.9745 9.97267 81.9745 10.682C81.9745 11.396 82.2055 11.9863 82.6675 12.453C83.1295 12.9197 83.7058 13.153 84.3965 13.153C85.0871 13.153 85.6635 12.9197 86.1255 12.453C86.5875 11.9863 86.8185 11.396 86.8185 10.682C86.8185 9.97267 86.5875 9.38467 86.1255 8.918ZM97.2228 9.821V10.773H93.3308V9.821H97.2228ZM103.355 4.2H107.198C108.3 4.2 109.144 4.44033 109.732 4.921C110.325 5.397 110.621 6.07833 110.621 6.965C110.621 7.81433 110.313 8.48867 109.697 8.988C109.086 9.48733 108.258 9.737 107.212 9.737H107.051L110.572 14H109.172L105.721 9.737H104.482V14H103.355V4.2ZM107.184 5.257H104.482V8.715H107.184C107.926 8.715 108.489 8.568 108.871 8.274C109.259 7.97533 109.452 7.539 109.452 6.965C109.452 6.40033 109.259 5.97567 108.871 5.691C108.484 5.40167 107.922 5.257 107.184 5.257ZM119.802 5.145L119.228 6.055C118.332 5.44367 117.347 5.138 116.274 5.138C115.523 5.138 114.911 5.29667 114.44 5.614C113.973 5.93133 113.74 6.363 113.74 6.909C113.74 7.36167 113.924 7.71633 114.293 7.973C114.666 8.22967 115.236 8.40467 116.001 8.498L116.932 8.61C117.361 8.66133 117.749 8.74533 118.094 8.862C118.444 8.97867 118.766 9.135 119.06 9.331C119.354 9.527 119.583 9.78367 119.746 10.101C119.909 10.4183 119.991 10.78 119.991 11.186C119.991 11.8113 119.811 12.3503 119.452 12.803C119.097 13.2557 118.631 13.5917 118.052 13.811C117.478 14.0257 116.832 14.133 116.113 14.133C115.408 14.133 114.706 14.0187 114.006 13.79C113.311 13.5567 112.73 13.251 112.263 12.873L112.879 11.977C113.238 12.2803 113.714 12.5393 114.307 12.754C114.9 12.964 115.499 13.069 116.106 13.069C116.899 13.069 117.55 12.9127 118.059 12.6C118.568 12.2873 118.822 11.8487 118.822 11.284C118.822 10.8173 118.624 10.4557 118.227 10.199C117.835 9.94233 117.242 9.76967 116.449 9.681L115.462 9.569C114.575 9.46633 113.871 9.20267 113.348 8.778C112.83 8.35333 112.571 7.75367 112.571 6.979C112.571 6.377 112.739 5.85433 113.075 5.411C113.411 4.963 113.857 4.62933 114.412 4.41C114.967 4.186 115.59 4.074 116.281 4.074C117.606 4.074 118.78 4.431 119.802 5.145Z" fill="#222222"/>
<path d="M51.8074 41.688L47.6314 37.584C50.5914 33.728 54.4154 31.8 59.1034 31.8C62.5914 31.8 65.3594 32.8 67.4074 34.8C69.4714 36.784 70.5034 39.4 70.5034 42.648C70.5034 44.536 70.0874 46.24 69.2554 47.76C68.4394 49.264 67.2394 50.832 65.6554 52.464L58.4794 59.928H71.3194V66H49.1194V60.936L60.9994 48.768C62.8394 46.896 63.7594 44.976 63.7594 43.008C63.7594 41.536 63.2874 40.336 62.3434 39.408C61.3994 38.464 60.1594 37.992 58.6234 37.992C57.1674 37.992 55.9274 38.312 54.9034 38.952C53.8794 39.592 52.8474 40.504 51.8074 41.688ZM78.8543 41.688L74.6783 37.584C77.6383 33.728 81.4623 31.8 86.1503 31.8C89.6383 31.8 92.4063 32.8 94.4543 34.8C96.5183 36.784 97.5503 39.4 97.5503 42.648C97.5503 44.536 97.1343 46.24 96.3023 47.76C95.4863 49.264 94.2863 50.832 92.7023 52.464L85.5263 59.928H98.3663V66H76.1663V60.936L88.0463 48.768C89.8863 46.896 90.8063 44.976 90.8063 43.008C90.8063 41.536 90.3343 40.336 89.3903 39.408C88.4463 38.464 87.2063 37.992 85.6703 37.992C84.2143 37.992 82.9743 38.312 81.9503 38.952C80.9263 39.592 79.8943 40.504 78.8543 41.688ZM104.125 37.608C105.837 35.944 107.981 35.112 110.557 35.112C113.133 35.112 115.269 35.944 116.965 37.608C118.661 39.256 119.509 41.328 119.509 43.824C119.509 46.32 118.661 48.4 116.965 50.064C115.269 51.728 113.133 52.56 110.557 52.56C107.981 52.56 105.837 51.728 104.125 50.064C102.429 48.4 101.581 46.32 101.581 43.824C101.581 41.328 102.429 39.256 104.125 37.608ZM113.581 40.68C112.781 39.864 111.773 39.456 110.557 39.456C109.341 39.456 108.333 39.864 107.533 40.68C106.733 41.496 106.333 42.544 106.333 43.824C106.333 45.104 106.733 46.16 107.533 46.992C108.333 47.808 109.341 48.216 110.557 48.216C111.773 48.216 112.781 47.808 113.581 46.992C114.381 46.16 114.781 45.104 114.781 43.824C114.781 42.544 114.381 41.496 113.581 40.68Z" fill="#222222"/>
<g clip-path="url(#clip0_68_41)">
<path d="M22.3438 30.8517C21.8762 30.8517 21.4755 31.2525 21.4755 31.7201V34.0914C21.4755 34.559 21.8762 34.9597 22.3438 34.9597C22.8114 34.9597 23.2122 34.559 23.2122 34.0914V31.7201C23.2122 31.2525 22.8114 30.8517 22.3438 30.8517Z" fill="#454545"/>
<path d="M30.5599 34.2584C30.2259 33.9244 29.6916 33.9244 29.3576 34.2584L27.6876 35.9283C27.3536 36.2623 27.3536 36.7967 27.6876 37.1307C28.0216 37.4647 28.556 37.4647 28.89 37.1307L30.5599 35.4607C30.8939 35.1267 30.8939 34.5924 30.5599 34.2584Z" fill="#454545"/>
<path d="M16.9665 35.9283L15.2966 34.2584C14.9626 33.9244 14.4282 33.9244 14.0942 34.2584C13.7603 34.5924 13.7603 35.1267 14.0942 35.4607L15.7642 37.1307C16.0982 37.4647 16.6325 37.4647 16.9665 37.1307C17.3005 36.7967 17.3005 36.2623 16.9665 35.9283Z" fill="#454545"/>
<path d="M22.9784 56.9361C22.3104 56.2682 21.4086 55.8674 20.4067 55.8674C20.3733 55.8674 20.3399 55.8674 20.3399 55.8674H10.9548C10.4872 55.8674 10.0864 56.2348 10.0864 56.7357C10.0864 57.2033 10.4538 57.6041 10.9548 57.6041H20.3399C20.3733 57.6041 20.3733 57.6041 20.4067 57.6041C20.941 57.6041 21.4086 57.8045 21.7426 58.1719C22.0766 58.5059 22.3104 59.0069 22.3104 59.5078C22.3104 60.0422 22.11 60.5098 21.7426 60.8438C21.4086 61.1778 20.9076 61.4116 20.4067 61.4116C19.8723 61.4116 19.4047 61.2112 19.0707 60.8438C18.7367 60.5098 18.5029 60.0088 18.5029 59.5078C18.5029 59.0403 18.1021 58.6395 17.6346 58.6395C17.167 58.6395 16.7662 59.0403 16.7662 59.5078C16.7662 60.5098 17.167 61.4116 17.835 62.0796C18.5029 62.7475 19.4047 63.1483 20.4067 63.1483C21.4086 63.1483 22.3104 62.7475 22.9784 62.0796C23.6464 61.4116 24.0471 60.5098 24.0471 59.5078C24.0471 58.5059 23.6464 57.6041 22.9784 56.9361Z" fill="#454545"/>
<path d="M30.5265 49.4882L28.89 47.8516C28.556 47.5177 28.0216 47.5177 27.6876 47.8516C27.554 47.9852 27.4872 48.1188 27.4538 48.2858C27.4204 47.5177 27.22 46.8163 26.9528 46.1483C27.2868 45.7141 27.5874 45.2131 27.7878 44.7122C28.0884 44.0108 28.222 43.2426 28.222 42.4744C28.222 40.8379 27.554 39.3683 26.4853 38.333C25.4165 37.2976 23.947 36.6296 22.3438 36.6296C21.2417 36.6296 20.2063 36.9302 19.3045 37.4646C18.6699 37.8654 18.1022 38.3664 17.6346 38.9676C16.2986 38.0658 14.6955 37.5314 12.9921 37.5314C10.9548 37.5314 9.08448 38.2662 7.64833 39.5019C6.37917 40.6041 5.44401 42.0736 5.00982 43.8104C3.70727 43.9774 2.53831 44.5786 1.66994 45.4469C0.634578 46.4823 0 47.9184 0 49.4882C0 51.0579 0.634578 52.4941 1.66994 53.5294C2.7053 54.5648 4.14145 55.1994 5.7112 55.1994H20.9077C22.7112 55.1994 24.3143 54.4646 25.5167 53.2956C26.6857 52.1267 27.4204 50.4901 27.4204 48.6866V48.6532C27.4538 48.7868 27.5206 48.9204 27.6542 49.0206L29.3242 50.6905C29.6582 51.0245 30.1925 51.0245 30.5265 50.6905C30.8605 50.3566 30.8605 49.8222 30.5265 49.4882ZM24.3477 52.0933C23.4794 52.9617 22.277 53.496 20.9745 53.496H5.7446C4.64244 53.496 3.64047 53.0619 2.9057 52.3271C2.17092 51.5923 1.73674 50.5903 1.73674 49.4882C1.73674 48.386 2.17092 47.3841 2.9057 46.6493C3.64047 45.9145 4.64244 45.4803 5.7446 45.4803C5.87819 45.4803 6.04519 45.4469 6.14538 45.3801C6.34578 45.2465 6.47937 45.0461 6.51277 44.8123C6.74656 43.2426 7.54813 41.8399 8.68369 40.8713C9.81925 39.9027 11.3222 39.3015 12.9253 39.3015C14.2947 39.3015 15.5639 39.7357 16.6326 40.4705C17.4342 41.0383 18.1356 41.7731 18.6031 42.6748C18.4695 42.7416 18.336 42.775 18.2024 42.8418C17.3674 43.2092 16.6326 43.777 15.998 44.445C15.6974 44.8123 15.7308 45.3467 16.0648 45.6473C16.4322 45.9479 16.9666 45.9145 17.2672 45.5805C17.7348 45.0795 18.2692 44.6788 18.8703 44.3782C19.4715 44.111 20.1395 43.944 20.8409 43.944C22.1768 43.944 23.3458 44.4784 24.2141 45.3467C25.0825 46.2151 25.6169 47.4175 25.6169 48.72C25.7171 50.056 25.1827 51.2249 24.3477 52.0933ZM26.1847 44.0776C26.1179 44.2446 26.0511 44.4116 25.9509 44.5452C25.8173 44.3782 25.6837 44.2446 25.5501 44.111C24.3811 42.942 22.7446 42.2072 20.9411 42.2072C20.7741 42.2072 20.5737 42.2072 20.4067 42.2406C20.0393 41.4391 19.5383 40.7043 18.9371 40.1031C19.2711 39.6355 19.7053 39.2681 20.1729 38.9676C20.8075 38.5668 21.5422 38.3664 22.3104 38.3664C23.446 38.3664 24.5147 38.834 25.2495 39.5687C26.0177 40.3369 26.4519 41.3723 26.4519 42.5078C26.4853 43.0756 26.3851 43.61 26.1847 44.0776Z" fill="#454545"/>
<path d="M33.1317 41.6395H30.7603C30.2928 41.6395 29.892 42.0403 29.892 42.5078C29.892 42.9754 30.2928 43.3762 30.7603 43.3762H33.1317C33.5992 43.3762 34 42.9754 34 42.5078C33.9666 42.0403 33.5992 41.6395 33.1317 41.6395Z" fill="#454545"/>
</g>
<defs>
<clipPath id="clip0_68_41">
<rect width="34" height="34" fill="white" transform="translate(0 30)"/>
</clipPath>
</defs>
</svg>
